D:\school\WTK\thesis\model\3dpredictsim\Results\Batchsim_tmt_linear_v2\Pog_s1_tmt_aCst_d05_k800_ig24_pas_GRF.mot
nRows=15
nColumns=19

name D:\school\WTK\thesis\model\3dpredictsim\Results\Batchsim_tmt_linear_v2\Pog_s1_tmt_aCst_d05_k800_ig24_pas_GRF.mot
datacolumns 19
datarows 15
range 0.0000000000 0.1522560040
endheader
time 	ground_force_vx	ground_force_vy	ground_force_vz	ground_force_px	ground_force_py	ground_force_pz	1_ground_force_vx	1_ground_force_vy	1_ground_force_vz	1_ground_force_px	1_ground_force_py	1_ground_force_pz	ground_torque_x	ground_torque_y	ground_torque_z	1_ground_torque_x	1_ground_torque_y	1_ground_torque_z
        0.0000000000	      -60.9160579194	       43.0166203633	       10.9643923475	        0.1618724278	        0.0000000000	        0.0476588422	      119.7291172455	      485.8743478993	        4.8261990608	       -0.3497784129	        0.0000000000	       -0.0476513713	        0.0000000000	        0.0000000000	        0.0000000000	        0.0000000000	        0.0000000000	        0.0000000000	
        0.0108754289	     -115.1665217776	       99.6558475853	       26.7380449792	        0.1722128148	        0.0000000000	        0.0457719561	       86.4108050949	      384.8259241143	       -0.9946874220	       -0.3363918127	        0.0000000000	       -0.0454554960	        0.0000000000	        0.0000000000	        0.0000000000	        0.0000000000	        0.0000000000	        0.0000000000	
        0.0217508577	     -119.0258331223	      218.9509491294	       43.8774379509	        0.1791364318	        0.0000000000	        0.0446975417	       47.1633863306	      274.8560917186	       -6.7368825172	       -0.3142245812	        0.0000000000	       -0.0412891503	        0.0000000000	        0.0000000000	        0.0000000000	        0.0000000000	        0.0000000000	        0.0000000000	
        0.0326262866	      -68.5553092031	      407.1834207962	        6.4040667315	        0.1842640601	        0.0000000000	        0.0441138243	       15.5054498123	      183.0915895081	       -8.5674644134	       -0.2824050902	        0.0000000000	       -0.0339805147	        0.0000000000	        0.0000000000	        0.0000000000	        0.0000000000	        0.0000000000	        0.0000000000	
        0.0435017154	      -85.2712166779	      650.1122226397	       -9.6681598060	        0.1937167194	        0.0000000000	        0.0464881319	       -0.4138204579	      143.0651119346	      -11.2408031988	       -0.2681355706	        0.0000000000	       -0.0294315377	        0.0000000000	        0.0000000000	        0.0000000000	        0.0000000000	        0.0000000000	        0.0000000000	
        0.0543771443	     -124.3685358113	      863.4081813743	      -18.0416809499	        0.2019605470	        0.0000000000	        0.0488241459	       -1.1930571898	      110.3378787431	      -11.6693156512	       -0.2677277941	        0.0000000000	       -0.0296000581	        0.0000000000	        0.0000000000	        0.0000000000	        0.0000000000	        0.0000000000	        0.0000000000	
        0.0652525732	     -138.1701710723	      953.3844814201	      -21.1942809578	        0.2074283136	        0.0000000000	        0.0502348710	       -4.1660600664	       72.2650483734	      -11.0436172512	       -0.2672579027	        0.0000000000	       -0.0297174999	        0.0000000000	        0.0000000000	        0.0000000000	        0.0000000000	        0.0000000000	        0.0000000000	
        0.0761280020	     -132.8486494952	      943.9448613454	      -20.7071426662	        0.2114482159	        0.0000000000	        0.0511511403	       -8.8867956354	       30.3394371531	       -6.3886274726	       -0.2675975465	        0.0000000000	       -0.0296544462	        0.0000000000	        0.0000000000	        0.0000000000	        0.0000000000	        0.0000000000	        0.0000000000	
        0.0870034309	     -119.0865265179	      896.2507283836	      -19.8939945676	        0.2151139362	        0.0000000000	        0.0518064807	        0.1591484662	       -0.1598965308	        0.0131158540	        0.0000000000	        0.0000000000	        0.0000000000	        0.0000000000	        0.0000000000	        0.0000000000	        0.0000000000	        0.0000000000	        0.0000000000	
        0.0978788597	     -104.3910064894	      844.4461116105	      -18.6881356868	        0.2191976246	        0.0000000000	        0.0524539428	        0.0003904056	       -0.0003232962	       -0.0000042795	        0.0000000000	        0.0000000000	        0.0000000000	        0.0000000000	        0.0000000000	        0.0000000000	        0.0000000000	        0.0000000000	        0.0000000000	
        0.1087542886	      -95.4416338261	      808.0363290846	      -18.8704322657	        0.2246772658	        0.0000000000	        0.0529716641	        0.0001890000	       -0.0001365336	       -0.0000058293	        0.0000000000	        0.0000000000	        0.0000000000	        0.0000000000	        0.0000000000	        0.0000000000	        0.0000000000	        0.0000000000	        0.0000000000	
        0.1196297175	      -86.8853121654	      772.8862419811	      -18.1936923822	        0.2306630059	        0.0000000000	        0.0531016504	        0.0015414421	       -0.0009983919	       -0.0000609145	        0.0000000000	        0.0000000000	        0.0000000000	        0.0000000000	        0.0000000000	        0.0000000000	        0.0000000000	        0.0000000000	        0.0000000000	
        0.1305051463	      -77.8559649408	      733.0760547576	      -17.7590384118	        0.2363985861	        0.0000000000	        0.0531451894	        0.0062813326	       -0.0037286356	       -0.0002758623	        0.0000000000	        0.0000000000	        0.0000000000	        0.0000000000	        0.0000000000	        0.0000000000	        0.0000000000	        0.0000000000	        0.0000000000	
        0.1413805752	      -69.4621434226	      697.2327749423	      -17.3750089334	        0.2420156308	        0.0000000000	        0.0530612672	       -0.0610055207	        0.0337281739	        0.0028454000	        0.0000000000	        0.0000000000	        0.0000000000	        0.0000000000	        0.0000000000	        0.0000000000	        0.0000000000	        0.0000000000	        0.0000000000	
        0.1522560040	      -61.4810876057	      668.6177885913	      -17.2579340192	        0.2474818402	        0.0000000000	        0.0529507065	       -0.0422068086	        0.0219722093	        0.0020530847	        0.0000000000	        0.0000000000	        0.0000000000	        0.0000000000	        0.0000000000	        0.0000000000	        0.0000000000	        0.0000000000	        0.0000000000	
